<svg version="1.1" xmlns="http://www.w3.org/2000/svg" viewBox="-80.25628577760817 -10.93518977175633 149.068624035869 21.151246137610695" fill="none" stroke="black" stroke-width="0.6%" vector-effect="non-scaling-stroke">
    <path d="M -6.81828 -6.23622 L -6.81828 -9.58417 A 5 0.24417 360 0 1 -7.32242 -9.69102 A 5 0.24417 360 0 1 2.17345 -9.79786" />
    <path d="M 45.69283 -4.10118 L 45.69283 -4.31487 A 5 0.24417 360 0 1 46.19696 -4.20802 A 5 0.24417 360 0 1 43.38492 -3.98847" />
    <path d="M -6.81828 -9.58417 L 45.69283 -4.31487" />
    <path d="M 67.81234 -3.21124 L 2.17345 -9.79786" />
    <path d="M 34.09334 -2.40988 L 67.81234 -3.21124" />
    <path d="M 47.22111 -1.09256 L 34.09334 -2.40988" />
    <path d="M 33.73351 -0.77201 L 47.22111 -1.09256" />
    <path d="M 20.60574 -2.08934 L 33.73351 -0.77201" />
    <path d="M -13.11327 -1.28797 L 20.60574 -2.08934" />
    <path d="M -13.11327 -1.28797 L -78.75215 -7.87459 A 5 0.24417 360 0 1 -79.25628 -7.98144 A 5 0.24417 360 0 1 -69.76042 -8.08829" />
    <path d="M -17.24931 -2.819 L -69.76042 -8.08829" />
    <path d="M -10.56548 -2.70629 A 5 0.24417 360 0 1 -17.24931 -2.819" />
    <path d="M -10.56548 -2.70629 L 7.41799 -3.13368" />
    <path d="M 9.72589 -3.46009 A 5 0.24417 360 0 1 10.23002 -3.35324 A 5 0.24417 360 0 1 7.41799 -3.13368" />
    <path d="M 9.72589 -3.46009 L -42.78522 -8.72938 A 5 0.24417 360 0 1 -43.28935 -8.83623 L -43.28935 -5.43202" />
    <path d="M -43.28935 -8.83623 A 5 0.24417 360 0 1 -33.79348 -8.94308 L 18.71763 -3.67378" />
    <path d="M 25.40146 -3.56108 A 5 0.24417 360 0 1 18.71763 -3.67378" />
    <path d="M 25.40146 -3.56108 L 43.38492 -3.98847" />
    <path d="M 67.81234 6.77682 L 67.81234 -3.21124" />
    <path d="M 67.81234 6.77682 L 47.22111 7.26619" />
    <path d="M 33.73351 9.21606 L 47.22111 8.89551 L 47.22111 -1.09256" />
    <path d="M 20.60574 7.89873 L 33.73351 9.21606 L 33.73351 -0.77201" />
    <path d="M 20.60574 7.89873 L -13.11327 8.70009 L -13.11327 -1.28797" />
    <path d="M -78.75215 2.11348 L -13.11327 8.70009" />
    <path d="M -79.25628 2.00663 A 5 0.24417 180 0 0 -78.75215 2.11348 L -78.75215 -7.87459" />
    <path d="M 20.60574 7.89873 L 20.60574 -2.08934" />
    <path d="M 9.72589 -3.24639 L 9.72589 -3.46009" />
    <path d="M -42.78522 -5.38143 L -42.78522 -8.72938" />
    <path d="M -7.32242 -9.69102 L -7.32242 -6.2868" />
    <path d="M -79.25628 -7.98144 L -79.25628 2.00663" />
</svg>